<?xml version="1.0" encoding="utf-8"?>
<!-- Generator: Adobe Illustrator 16.0.0, SVG Export Plug-In . SVG Version: 6.00 Build 0)  -->
<!DOCTYPE svg PUBLIC "-//W3C//DTD SVG 1.1//EN" "http://www.w3.org/Graphics/SVG/1.1/DTD/svg11.dtd">
<svg version="1.1" id="Calque_1" xmlns="http://www.w3.org/2000/svg" xmlns:xlink="http://www.w3.org/1999/xlink" x="0px" y="0px"
	 width="283.46px" height="283.46px" viewBox="0 0 283.46 283.46" enable-background="new 0 0 283.46 283.46" xml:space="preserve">
<g>
	<g>
		<path fill="#FFFFFF" stroke="#FFFFFF" stroke-width="12" stroke-miterlimit="10" d="M238.617,93.217
			c0-9.312-5.662-20.129-12.646-24.162c-3.033-1.75-5.812-1.93-7.992-0.814l-0.002-0.002l-0.016,0.01
			c-0.043,0.021-0.084,0.049-0.125,0.072L48.239,163.806l15.786,35.45l169.987-95.684c0.004-0.002,0.008-0.006,0.012-0.008
			l0.213-0.122l-0.004-0.009C236.912,101.889,238.617,98.314,238.617,93.217z"/>
		<g>
			<path fill="#7B5007" stroke="#FFFFFF" stroke-miterlimit="10" d="M248.986,65.763c0,2.056-1.248,3.001-2.793,2.11
				c-1.541-0.891-2.789-3.277-2.789-5.334c0-2.056,1.248-3,2.789-2.111C247.738,61.318,248.986,63.707,248.986,65.763z"/>
		</g>
		<g>
			<path fill="#7B5007" stroke="#FFFFFF" stroke-miterlimit="10" d="M260.539,77.162c0,2.055-1.248,3-2.791,2.109
				c-1.541-0.891-2.791-3.277-2.791-5.334c0-2.056,1.25-3,2.791-2.11C259.291,72.717,260.539,75.105,260.539,77.162z"/>
		</g>
		<g>
			<path fill="#7B5007" stroke="#FFFFFF" stroke-width="2" stroke-miterlimit="10" d="M261.992,80.877
				c0-10.088-6.133-21.807-13.697-26.175c-3.285-1.896-6.299-2.092-8.66-0.884v-0.002l-0.018,0.011
				c-0.047,0.024-0.09,0.054-0.137,0.079l-21.152,12.217l17.102,38.405l21.576-12.434c0.004-0.002,0.008-0.005,0.014-0.008
				l0.229-0.132l-0.004-0.01C260.148,90.271,261.992,86.398,261.992,80.877z"/>
			<path fill="#7B5007" stroke="#FFFFFF" stroke-width="2" stroke-miterlimit="10" d="M240.631,93.211
				c0,10.087-6.133,14.725-13.699,10.355c-7.564-4.369-13.699-16.088-13.699-26.174c0-10.09,6.135-14.726,13.699-10.357
				C234.498,71.403,240.631,83.122,240.631,93.211z"/>
		</g>
		<path fill="#FFFFFF" stroke="#7B5007" stroke-width="4" stroke-miterlimit="10" d="M238.617,93.217
			c0-9.312-5.662-20.129-12.646-24.162c-3.033-1.75-5.812-1.93-7.992-0.814l-0.002-0.002l-0.016,0.01
			c-0.043,0.021-0.084,0.049-0.125,0.072L48.239,163.806l-32.145,40.642l47.931-5.191l169.987-95.684
			c0.004-0.002,0.008-0.006,0.012-0.008l0.213-0.122l-0.004-0.009C236.912,101.889,238.617,98.314,238.617,93.217z"/>
		<path fill="#7B5007" d="M37.043,202.178c-1.159-4.883-2.341-9.469-8.687-13.234l-12.263,15.504L37.043,202.178z"/>
	</g>
	<polyline fill="none" stroke="#7B5007" stroke-miterlimit="10" points="48.239,163.806 60.685,170.129 228.941,72.986 	"/>
	<polyline fill="none" stroke="#7B5007" stroke-miterlimit="10" points="236.209,87.827 67.953,184.97 64.025,199.256 	"/>
</g>
<line fill="none" stroke="#7B5007" stroke-miterlimit="10" x1="60.685" y1="170.129" x2="67.953" y2="184.97"/>
</svg>
